<?xml version="1.0" encoding="UTF-8"?>
<svg version="1.1" xmlns="http://www.w3.org/2000/svg" width="500" height="500">
<path d="M0 0 C1.85625 0.0309375 1.85625 0.0309375 3.75 0.0625 C3.75 1.0525 3.75 2.0425 3.75 3.0625 C2.72261719 3.41441406 1.69523438 3.76632813 0.63671875 4.12890625 C-13.82927965 9.22002699 -24.2842158 16.49941409 -35.25 27.0625 C-35.93578125 27.67351562 -36.6215625 28.28453125 -37.328125 28.9140625 C-58.12359617 48.04939101 -79.53467478 84.76714694 -82.0625 113 C-82.13177463 114.68723547 -82.19550403 116.37472256 -82.25 118.0625 C-74.14294934 117.71905639 -67.28572801 116.01208551 -59.6875 113.25 C-23.48097804 100.7186945 -23.48097804 100.7186945 -9.46875 106.44140625 C-4.92862287 108.72799941 -2.0976203 111.24617078 0.0625 115.875 C0.289375 116.596875 0.51625 117.31875 0.75 118.0625 C5.25707345 115.191277 9.24476804 112.02903335 13.25 108.5 C18.77149998 103.69282777 24.41798722 99.09451799 30.21875 94.62866211 C35.19428395 90.78412995 38.61268107 86.98890694 42.25 81.90234375 C44.08929854 79.64632914 45.76540485 78.23321609 48.6875 77.7265625 C54.20785877 77.62201025 54.20785877 77.62201025 56.75 79.6875 C58.11961463 82.94033474 58.34964644 84.53124875 57.75 88.0625 C55.41026302 92.83041762 53.26764442 96.35988684 48.375 98.625 C47.50875 98.769375 46.6425 98.91375 45.75 99.0625 C44.25 97.6875 44.25 97.6875 42.75 96.0625 C42.75 95.4025 42.75 94.7425 42.75 94.0625 C42.09 94.0625 41.43 94.0625 40.75 94.0625 C38.46015739 101.21825815 37.86639545 108.58511525 38.75 116.0625 C40.55083343 118.56394586 41.3316485 118.97285325 44.375 119.625 C49.37357958 118.7919034 52.76699506 116.08265679 56.75 113.0625 C57.57371094 112.46308594 58.39742187 111.86367188 59.24609375 111.24609375 C69.39455818 102.39587282 75.51948684 88.58390381 79.44140625 76.00390625 C80.75 73.0625 80.75 73.0625 82.90234375 71.65234375 C83.51207031 71.45769531 84.12179687 71.26304687 84.75 71.0625 C86.45990355 76.10273896 84.77589 79.63473587 83 84.375 C78.73328306 96.43675158 76.80423525 108.31425114 75.75 121.0625 C76.04656494 120.13614746 76.34312988 119.20979492 76.64868164 118.25537109 C77.77617589 114.74399165 78.91864837 111.23762476 80.06518555 107.73242188 C80.55481571 106.22882059 81.0406373 104.72397253 81.5222168 103.21777344 C88.22098854 82.29022377 88.22098854 82.29022377 93.75 74.0625 C95.89868164 73.12646484 95.89868164 73.12646484 97.75 73.0625 C98.75 74.0625 98.75 74.0625 98.8828125 76.28515625 C98.88023437 77.22230469 98.87765625 78.15945312 98.875 79.125 C98.87757813 80.04410156 98.88015625 80.96320313 98.8828125 81.91015625 C98.75 85.0625 98.75 85.0625 98.24609375 88.62109375 C97.47431683 94.41424422 97.64407043 100.22957495 97.6875 106.0625 C97.69426758 107.79693359 97.69426758 107.79693359 97.70117188 109.56640625 C97.71287471 112.39849225 97.72927004 115.23046811 97.75 118.0625 C109.49962443 111.91207931 117.13959145 100.63872953 124.75 90.0625 C143.25858362 64.34101246 143.25858362 64.34101246 153.59765625 62.3046875 C154.63792969 62.22476563 155.67820312 62.14484375 156.75 62.0625 C156.75 63.3825 156.75 64.7025 156.75 66.0625 C154.73046875 67.78125 154.73046875 67.78125 151.9375 69.5625 C140.73153349 77.36485249 133.54699606 86.79581892 127.75 99.0625 C128.9565625 99.16046875 130.163125 99.2584375 131.40625 99.359375 C133.02091175 99.50957609 134.63549105 99.6606653 136.25 99.8125 C137.04148437 99.874375 137.83296875 99.93625 138.6484375 100 C145.30238754 100.65448689 150.84710861 102.39790567 155.84375 106.984375 C156.3078125 107.58765625 156.771875 108.1909375 157.25 108.8125 C157.97703125 109.73289062 157.97703125 109.73289062 158.71875 110.671875 C159.0590625 111.13078125 159.399375 111.5896875 159.75 112.0625 C163.39821844 110.5122178 165.82761113 108.28046957 168.6875 105.5625 C172.80655526 101.72504235 177.02110063 98.31771194 181.5625 95 C186.24800109 91.54269082 189.66608619 88.09934102 192.50390625 82.97265625 C194.48087377 79.94213238 196.81401064 78.39849618 200.1875 77.1875 C203.56411904 77.02278688 205.08284305 78.06213228 207.75 80.0625 C209.24590709 83.05431417 209.17743011 84.7041206 208.75 88.0625 C206.43292103 92.8329567 204.25571314 96.36541058 199.375 98.625 C198.075625 98.8415625 198.075625 98.8415625 196.75 99.0625 C195.25 97.6875 195.25 97.6875 193.75 96.0625 C193.75 95.4025 193.75 94.7425 193.75 94.0625 C193.09 94.0625 192.43 94.0625 191.75 94.0625 C188.61375398 106.13874074 188.61375398 106.13874074 190.75 118.0625 C193.74181417 119.55840709 195.3916206 119.48993011 198.75 119.0625 C204.12709085 116.24142065 208.68718057 112.56454316 212.75 108.0625 C213.20761719 107.57394531 213.66523438 107.08539063 214.13671875 106.58203125 C218.06263354 102.24394693 221.10274301 97.50947932 224.13671875 92.515625 C225.55181271 90.36385985 226.73575831 88.65688656 228.75 87.0625 C229.74 87.0625 230.73 87.0625 231.75 87.0625 C232.08 88.0525 232.41 89.0425 232.75 90.0625 C231.59594964 92.30201375 230.39707952 94.3730139 229.0625 96.5 C223.59331372 105.6601724 220.02767927 114.22768898 220.75 125.0625 C232.95625609 121.55983521 241.8869113 110.41799703 249.953125 101.09375 C251.92228166 98.86774681 253.93644267 96.70136964 256 94.5625 C256.64453125 93.8921875 257.2890625 93.221875 257.953125 92.53125 C259.75 91.0625 259.75 91.0625 262.75 91.0625 C263.08 92.0525 263.41 93.0425 263.75 94.0625 C260.29995612 100.90795364 253.72428867 106.39593743 248.33740234 111.73583984 C246.87750739 113.18501103 245.42862163 114.64457409 243.98046875 116.10546875 C229.8164065 130.29610495 229.8164065 130.29610495 223.5625 130.75 C219.75 130.0625 219.75 130.0625 216.8125 128.125 C214.12721713 124.1377618 213.8631843 120.78537233 213.75 116.0625 C213.32589844 116.46082031 212.90179688 116.85914063 212.46484375 117.26953125 C207.56076825 121.69936648 203.38143852 124.54372307 196.6875 125.5 C192.18087408 124.8288004 189.30228352 123.05555539 186.484375 119.4375 C183.01753402 113.57805046 183.3521761 107.69289829 183.75 101.0625 C180.03139184 104.00263318 176.38206672 107.01625049 172.75 110.0625 C171.90566406 110.73539062 171.06132812 111.40828125 170.19140625 112.1015625 C164.35065302 117.20360327 162.59070898 121.83273428 160.70605469 129.09643555 C158.50303738 137.0274855 153.55872984 142.52334677 146.75 147.0625 C142.20945946 146.52195946 142.20945946 146.52195946 140.75 145.0625 C140.75 135.98590299 147.16788542 128.8969758 152.75 122.25 C155.0322777 119.37145155 155.71672127 118.50344317 156 114.75 C153.92362568 110.28579522 151.20631234 108.62719254 146.6875 106.875 C142.40544321 105.7833108 138.0164475 105.68101931 133.6171875 105.50390625 C130.37510134 105.00478399 128.49720306 103.79684537 125.75 102.0625 C124.76 102.0625 123.77 102.0625 122.75 102.0625 C120.90761386 104.04180013 119.23521283 106.01050909 117.5625 108.125 C106.55590885 121.50131823 106.55590885 121.50131823 100 122.8125 C96.75 122.0625 96.75 122.0625 94.375 119.8125 C92.18973554 116.11436014 91.64603632 112.98322633 91.43359375 108.734375 C91.37075195 107.53554688 91.37075195 107.53554688 91.30664062 106.3125 C91.26732422 105.4875 91.22800781 104.6625 91.1875 103.8125 C91.14431641 102.97203125 91.10113281 102.1315625 91.05664062 101.265625 C90.95091457 99.19809329 90.84998705 97.13031719 90.75 95.0625 C85.67195741 109.56051544 81.43734875 124.1513612 77.75 139.0625 C75.9375 139.6875 75.9375 139.6875 73.75 140.0625 C70.75 138.0625 70.75 138.0625 69.75 135.0625 C69.65189222 132.38473481 69.60871681 129.73963129 69.625 127.0625 C69.62693359 126.30590088 69.62886719 125.54930176 69.63085938 124.76977539 C69.67631242 118.82994652 70.03645025 112.96202743 70.75 107.0625 C70.04875 107.87074219 69.3475 108.67898438 68.625 109.51171875 C56.29237278 123.50543081 56.29237278 123.50543081 47.125 125.125 C43.83876364 125.30599753 42.58168747 124.98945871 39.4375 123.625 C35.38914861 119.76494403 33.06570797 116.06394897 32.47265625 110.42578125 C32.42322267 106.66333637 32.55415641 103.65003076 33.75 100.0625 C29.74504096 103.14181365 25.77224565 106.25730093 21.82568359 109.41113281 C20.43882938 110.51448284 19.04585698 111.61018496 17.64697266 112.69824219 C8.27123687 119.32034656 8.27123687 119.32034656 3 128.9375 C2.89005942 130.64432755 2.80936905 132.35316605 2.75 134.0625 C-1.22455381 159.16648326 -11.41578127 185.26149846 -32.25 201.0625 C-37.82772793 205.01646592 -42.88590753 208.23355555 -49.9375 207.875 C-54.522 206.7505 -54.522 206.7505 -56.25 204.0625 C-58.87185513 195.2816124 -53.71530639 185.30670567 -49.625 177.5625 C-42.97894604 165.45107542 -34.68242544 155.10346901 -25.25 145.0625 C-24.07669804 143.71407834 -22.90943303 142.36036522 -21.75 141 C-17.50177095 136.10748977 -12.86229485 131.60805747 -8.25 127.0625 C-6.5821723 125.39699518 -4.91518453 123.73064749 -3.25 122.0625 C-4.31046051 116.23913742 -4.31046051 116.23913742 -7.890625 111.76171875 C-21.56538371 106.25527965 -37.88250968 112.57456284 -50.98291016 116.98193359 C-52.91710727 117.63147495 -54.85301637 118.27593865 -56.79052734 118.91552734 C-58.6694947 119.53783829 -60.54392679 120.17408185 -62.41259766 120.82666016 C-69.62104818 123.22504294 -76.68266608 124.78246457 -83.75 121.375 C-86.45908663 118.86909487 -87.20932421 117.5512417 -88.25 114.0625 C-88.2265625 110.94921875 -88.2265625 110.94921875 -87.875 107.75 C-87.76414063 106.68136719 -87.65328125 105.61273438 -87.5390625 104.51171875 C-87.39597656 103.29935547 -87.39597656 103.29935547 -87.25 102.0625 C-87.78367188 102.67996094 -88.31734375 103.29742187 -88.8671875 103.93359375 C-94.30622284 110.11602665 -100.04872104 115.65575991 -106.25 121.0625 C-107.91717205 122.56193827 -109.58386451 124.06191002 -111.25 125.5625 C-115.36925685 129.26983116 -117.53860627 130.40754441 -123.27734375 130.35546875 C-125.25 130.0625 -125.25 130.0625 -127.6875 128.1875 C-130.61655407 124.20398647 -130.75917599 120.88469612 -130.25 116.0625 C-128.70018396 108.31341978 -125.72094169 101.58216464 -121.75 94.8125 C-121.37045166 94.15628662 -120.99090332 93.50007324 -120.59985352 92.82397461 C-117.81178157 88.28952132 -117.81178157 88.28952132 -114.96875 87.140625 C-114.4015625 87.11484375 -113.834375 87.0890625 -113.25 87.0625 C-112.51953125 88.65625 -112.51953125 88.65625 -112.25 91.0625 C-113.39408778 93.35658815 -114.56853983 95.41169835 -115.9375 97.5625 C-121.1572975 106.23109228 -125.04360175 114.74567721 -124.25 125.0625 C-110.03722927 120.92564166 -98.62228172 106.01437976 -89.25 95.0625 C-87 92.5625 -87 92.5625 -85.25 91.0625 C-84.26 91.0625 -83.27 91.0625 -82.25 91.0625 C-82.09797119 90.47041748 -81.94594238 89.87833496 -81.78930664 89.26831055 C-79.87447266 82.32881161 -77.06541993 76.21602638 -73.6875 69.875 C-73.15519775 68.86832275 -72.62289551 67.86164551 -72.07446289 66.82446289 C-67.62343503 58.52849045 -62.80820945 50.65755526 -57.25 43.0625 C-56.83459961 42.48773926 -56.41919922 41.91297852 -55.99121094 41.32080078 C-43.6916749 24.46640223 -23.11784214 -0.38529737 0 0 Z M196.75 86.0625 C196.09 86.7225 195.43 87.3825 194.75 88.0625 C194.75 89.0525 194.75 90.0425 194.75 91.0625 C195.41 91.0625 196.07 91.0625 196.75 91.0625 C196.75 91.7225 196.75 92.3825 196.75 93.0625 C200.96073233 91.55866703 202.58237117 88.85585044 204.75 85.0625 C204.75 84.0725 204.75 83.0825 204.75 82.0625 C201.45007176 82.0625 199.37380244 84.20397327 196.75 86.0625 Z M44.9375 86.5625 C43.43964853 88.135664 43.43964853 88.135664 43.75 91.0625 C44.41 91.0625 45.07 91.0625 45.75 91.0625 C45.75 91.7225 45.75 92.3825 45.75 93.0625 C49.96073233 91.55866703 51.58237117 88.85585044 53.75 85.0625 C53.75 84.0725 53.75 83.0825 53.75 82.0625 C50.21811793 82.0625 47.58192132 84.37401339 44.9375 86.5625 Z M-9.53125 135.9453125 C-10.36817383 136.77603271 -11.20509766 137.60675293 -12.06738281 138.46264648 C-12.95264648 139.36184814 -13.83791016 140.2610498 -14.75 141.1875 C-15.65331055 142.10023682 -16.55662109 143.01297363 -17.48730469 143.95336914 C-31.08768847 157.86062961 -50.96212547 179.0779029 -51.3125 199.75 C-51.291875 200.843125 -51.27125 201.93625 -51.25 203.0625 C-42.68961765 203.0625 -36.63331848 197.13109118 -30.5625 191.625 C-29.799375 190.779375 -29.03625 189.93375 -28.25 189.0625 C-27.65960938 188.464375 -27.06921875 187.86625 -26.4609375 187.25 C-11.92650306 171.98603796 -6.52193099 152.14057564 -2.25 132.0625 C-6.1853716 132.0625 -6.78336999 133.20979442 -9.53125 135.9453125 Z M150.75 133.0625 C151.75 135.0625 151.75 135.0625 151.75 135.0625 Z " fill="#FCFCFC" transform="translate(182.25,159.9375)"/>
<path d="M0 0 C0.84242752 -0.00570007 1.68485504 -0.01140015 2.55281067 -0.01727295 C4.33735908 -0.02671899 6.1219249 -0.03325536 7.90649414 -0.03710938 C10.61701589 -0.04677686 13.32676678 -0.07778765 16.03710938 -0.109375 C17.7747351 -0.11590935 19.51236623 -0.12115812 21.25 -0.125 C22.05237595 -0.1373468 22.85475189 -0.1496936 23.68144226 -0.16241455 C29.88616721 -0.13824783 35.56621696 0.79399503 40.44970703 4.86376953 C44.36547684 10.31185971 46.00297908 15.54210131 47.33203125 22.078125 C47.5434375 23.026875 47.75484375 23.975625 47.97265625 24.953125 C49.45703125 31.71956169 49.45703125 31.71956169 49.45703125 34.203125 C51.43703125 34.863125 53.41703125 35.523125 55.45703125 36.203125 C45.58203488 46.98595406 29.8458487 51.65854989 15.58203125 52.40625 C-0.14725343 52.71016083 -17.73890735 50.64911521 -30.11230469 39.83105469 C-31.29167657 38.65664858 -32.42317471 37.43446941 -33.54296875 36.203125 C-32.61484375 35.89375 -31.68671875 35.584375 -30.73046875 35.265625 C-24.69673635 31.36144521 -24.53833385 24.18454501 -23.10546875 17.515625 C-21.63107259 10.99484199 -19.92210171 6.99961315 -14.48046875 2.890625 C-9.61214175 0.09392651 -5.47438116 0.0286345 0 0 Z " fill="#FEFEFD" transform="translate(238.54296875,163.796875)"/>
<path d="M0 0 C5.12669307 -0.557025 9.60941752 -0.9308296 13.875 2.3125 C18.91205248 7.39673798 20.38463615 14.19734667 21.91796875 20.98828125 C24.75343249 33.52964282 28.94899783 40.88892034 40 48 C42.38863462 49.45576939 42.38863462 49.45576939 45 50 C47.62519491 49.09002631 47.62519491 49.09002631 50.0625 47.375 C50.89910156 46.84648437 51.73570312 46.31796875 52.59765625 45.7734375 C55.06696441 44.04649536 55.06696441 44.04649536 57.18359375 41.7890625 C59 40 59 40 61 40 C61.28939453 39.41460449 61.57878906 38.82920898 61.87695312 38.22607422 C62.55706035 36.87798343 63.25427114 35.53809094 63.98242188 34.21533203 C67.25327262 28.13835042 68.62209496 21.94969029 70.06640625 15.24609375 C71.5768957 8.67396415 73.15909444 3.89393704 79 0 C81.69921875 -0.1953125 81.69921875 -0.1953125 84.6875 -0.125 C86.17830078 -0.09792969 86.17830078 -0.09792969 87.69921875 -0.0703125 C88.45847656 -0.04710938 89.21773438 -0.02390625 90 0 C90 0.66 90 1.32 90 2 C88.68 2.33 87.36 2.66 86 3 C83.83517093 9.05984972 83.94837107 14.31000217 84.1875 20.6875 C84.37214382 32.42350003 82.38941031 40.23504687 74.8125 49.4375 C66.62388604 57.88370281 56.66417697 60.87010344 45.125 61.3125 C32.80838336 60.98431429 22.16053203 56.66348916 13.625 47.75 C4.97169952 37.24366951 4.73271654 25.57973284 5.25 12.4375 C5.36566071 8.61328792 5.36566071 8.61328792 3.890625 5.21484375 C2.3824063 3.70673375 2.3824063 3.70673375 0 2 C0 1.34 0 0.68 0 0 Z " fill="#FDFDFD" transform="translate(205,92)"/>
<path d="M0 0 C0.66 0 1.32 0 2 0 C4.1386173 4.68031088 6.27479877 9.36172256 8.40869141 14.04418945 C9.13555468 15.63824777 9.86309262 17.23199863 10.59130859 18.82543945 C11.63554931 21.11069277 12.6773897 23.39702671 13.71875 25.68359375 C14.21091003 26.7586039 14.21091003 26.7586039 14.7130127 27.85533142 C17 32.88612829 17 32.88612829 17 34 C2.59628898 35.07771234 2.59628898 35.07771234 -1.15234375 32.546875 C-2.5625 30.6875 -2.5625 30.6875 -3.56640625 28.82421875 C-6.16709345 25.51489743 -10.12637113 24.24619806 -14.19554138 23.71150208 C-16.66490959 23.58891185 -19.11744542 23.55794177 -21.58984375 23.56640625 C-22.49319962 23.5611644 -23.39655548 23.55592255 -24.32728577 23.55052185 C-26.22916643 23.54412651 -28.13108678 23.54540625 -30.03295898 23.55395508 C-32.92569131 23.56246526 -35.81644664 23.53366901 -38.70898438 23.50195312 C-40.56510358 23.50034074 -42.42122625 23.50091936 -44.27734375 23.50390625 C-45.13279282 23.49267227 -45.98824188 23.48143829 -46.86961365 23.46986389 C-52.637705 23.53603967 -57.23701698 24.61581694 -62 28 C-63.3221203 29.55814791 -63.3221203 29.55814791 -64.48046875 31.2265625 C-67.36604849 34.4029371 -67.36604849 34.4029371 -70.98828125 34.5859375 C-72.43086011 34.54641479 -73.87287302 34.47534933 -75.3125 34.375 C-76.05306641 34.34792969 -76.79363281 34.32085937 -77.55664062 34.29296875 C-79.37235998 34.22268284 -81.18656801 34.11507089 -83 34 C-80.74588334 26.62219154 -77.69783441 19.86105488 -74.3125 12.9375 C-73.80138672 11.88111328 -73.29027344 10.82472656 -72.76367188 9.73632812 C-71.51396126 7.15515013 -70.25932878 4.5764953 -69 2 C-64.56926952 2 -64.56926952 2 -61.875 4.6875 C-52.85204441 12.8428637 -42.02206903 15.50333567 -30.11328125 15.24609375 C-20.29527405 14.47001539 -10.35157935 11.55305057 -3.33984375 4.27734375 C-2.20051852 2.87228669 -1.09629303 1.4388846 0 0 Z " fill="#FDFDFD" transform="translate(283,139)"/>
<path d="M0 0 C1.7578125 1.046875 1.7578125 1.046875 2.63671875 2.9765625 C2.7578125 5.046875 2.7578125 5.046875 0.8203125 7.921875 C-3.12190782 12.27267278 -9.73021382 18.5336309 -15.62109375 19.39453125 C-22.09800448 18.53544771 -27.68741888 11.88776596 -31.8671875 7.171875 C-34.2421875 4.046875 -34.2421875 4.046875 -34.2421875 2.046875 C-23.07777253 -3.15235359 -11.77394282 -3.49721074 0 0 Z " fill="#FDFDFD" transform="translate(265.2421875,120.953125)"/>
<path d="M0 0 C2.54415799 2.37454746 4.60474205 4.80230766 6 8 C5.82192405 13.56082634 3.23203933 18.40547958 0.9375 23.375 C0.56044922 24.20644531 0.18339844 25.03789062 -0.20507812 25.89453125 C-1.13043356 27.93265588 -2.0621837 29.9675867 -3 32 C-3.66 32 -4.32 32 -5 32 C-6.06117255 30.41427057 -7.0474337 28.77825208 -8 27.125 C-11.36351844 21.59514764 -15.31295795 17.54831051 -20.15625 13.2890625 C-22 11 -22 11 -22.1484375 8.4140625 C-20.51991977 4.99085176 -18.53515893 4.30378944 -15.125 2.75 C-14.05507812 2.24984375 -12.98515625 1.7496875 -11.8828125 1.234375 C-7.34563625 -0.70837256 -4.7775158 -1.59250527 0 0 Z M-13 7 C-13 7.99 -13 8.98 -13 10 C-10.14221967 10.68493373 -10.14221967 10.68493373 -7 11 C-6.01 10.34 -5.02 9.68 -4 9 C-4.66 7.68 -5.32 6.36 -6 5 C-9.95457848 4.65176193 -9.95457848 4.65176193 -13 7 Z " fill="#FDFDFD" transform="translate(205,132)"/>
<path d="M0 0 C3.77251133 1.82806783 7.39732462 3.85859669 11 6 C10.6589017 8.87009853 10.43263963 10.54942165 8.3984375 12.66796875 C7.73070312 13.16941406 7.06296875 13.67085937 6.375 14.1875 C2.23149444 17.57223075 -0.54113329 21.30520151 -3.45703125 25.765625 C-4.84123696 27.77009504 -6.26029691 29.31385883 -8 31 C-9.73750736 27.61833722 -11.43461523 24.21793032 -13.125 20.8125 C-13.61871094 19.85279297 -14.11242187 18.89308594 -14.62109375 17.90429688 C-15.30751953 16.50727539 -15.30751953 16.50727539 -16.0078125 15.08203125 C-16.43723145 14.22843018 -16.86665039 13.3748291 -17.30908203 12.49536133 C-18.1970645 9.28826989 -17.51783011 7.89832097 -16 5 C-11.20268755 -1.94995266 -7.93905483 -2.61918964 0 0 Z M-7 5 C-6.50243908 7.75641416 -6.50243908 7.75641416 -5 10 C-3.33382885 10.04063832 -1.66611905 10.042721 0 10 C0.66 8.68 1.32 7.36 2 6 C-1.33057451 3.77961699 -3.28833195 3.14416598 -7 5 Z " fill="#FDFDFD" transform="translate(306,133)"/>
<path d="M0 0 C5.28 0 10.56 0 16 0 C15.57533269 2.7317252 15.13582303 5.45964392 14.6875 8.1875 C14.56955078 8.95642578 14.45160156 9.72535156 14.33007812 10.51757812 C13.59225509 14.92559782 12.75712828 18.34981732 10 22 C6.66041982 23.66979009 4.70178235 23.60684957 1 23 C-1.93955596 20.37399667 -4.28212618 17.55441655 -6 14 C-5.67480959 8.663542 -2.63075307 4.51949886 0 0 Z " fill="#FDFDFD" transform="translate(199,175)"/>
<path d="M0 0 C5.28 0 10.56 0 16 0 C21.64021499 9.4473601 21.64021499 9.4473601 21 14 C19.14924235 17.44416142 16.83651826 20.31187102 14 23 C10.52309367 23.81809561 9.12490363 23.54194014 5.96484375 22.01953125 C2.89269923 18.86187972 2.55785715 15.17212828 1.75 10.9375 C1.57726562 10.10927734 1.40453125 9.28105469 1.2265625 8.42773438 C0 2.44580853 0 2.44580853 0 0 Z " fill="#FDFDFD" transform="translate(285,175)"/>
<path d="M0 0 C0.99 0.33 1.98 0.66 3 1 C2.44332815 5.54615347 0.64750318 8.52874524 -1.875 12.3125 C-2.92300781 13.91544922 -2.92300781 13.91544922 -3.9921875 15.55078125 C-4.65476562 16.35902344 -5.31734375 17.16726562 -6 18 C-6.99 18 -7.98 18 -9 18 C-8.48918339 13.21109426 -7.16456098 10.17888131 -4.5 6.1875 C-3.8709375 5.23230469 -3.241875 4.27710938 -2.59375 3.29296875 C-1 1 -1 1 0 0 Z " fill="#FDFDFD" transform="translate(424,223)"/>
<path d="M0 0 C0.99 0.33 1.98 0.66 3 1 C2.41792182 5.24529018 0.95085318 8.19210423 -1.3125 11.8125 C-1.90675781 12.78832031 -2.50101562 13.76414063 -3.11328125 14.76953125 C-4.04720703 15.87361328 -4.04720703 15.87361328 -5 17 C-6.32 17 -7.64 17 -9 17 C-8.35826346 12.88473708 -6.13013842 9.69611565 -3.9375 6.25 C-3.56044922 5.64800781 -3.18339844 5.04601562 -2.79492188 4.42578125 C-1.86806837 2.94750857 -0.93467611 1.47333911 0 0 Z " fill="#FCFCFC" transform="translate(79,223)"/>
</svg>
